<svg version="1.1" id="Layer_1" class="brand-logo" xmlns="http://www.w3.org/2000/svg" xmlns:xlink="http://www.w3.org/1999/xlink" x="0px" y="0px" viewBox="0 0 486.8 200" style="enable-background:new 0 0 486.8 200;" xml:space="preserve">
<title>UL Logo</title>
<style type="text/css">
	.st0{fill:url(#SVGID_1_);}
	.st1{fill:url(#SVGID_00000152954460339158453860000017683390030092493494_);}
	.st2{fill:#CA0123;}
</style>
<g id="a">
</g>
<g id="b">
	<g id="c">
		<g id="d">
			<g id="e">
				<g id="f">
						<linearGradient id="SVGID_1_" gradientUnits="userSpaceOnUse" x1="-366.82" y1="202.18" x2="-559.98" y2="202.18" gradientTransform="matrix(-1 0 0 -1 -340.89 316.68)">
						<stop offset="0" style="stop-color:#CA0123"></stop>
						<stop offset="0.15" style="stop-color:#C10123"></stop>
						<stop offset="0.4" style="stop-color:#A90224"></stop>
						<stop offset="0.71" style="stop-color:#810326"></stop>
						<stop offset="0.97" style="stop-color:#5B0428"></stop>
					</linearGradient>
					<path class="st0" d="M95.5,175c43.5,0,74.5-35,74.5-75s-31.5-70-70-70c-4,0-9,0.5-11.5,1c4.5-1.5,12-2,16-2
						c51,0,81.5,41,81.5,85c0,51.5-38.5,86-86,86C45,200,0,155,0,100c0-19.5,6-45,26.5-67.5c-13,18-16.5,36-16.5,54
						C10,133,41.5,175,95.5,175z"></path>

						<linearGradient id="SVGID_00000115506031592083566370000000491082244851198114_" gradientUnits="userSpaceOnUse" x1="157.8582" y1="248.2378" x2="16.1281" y2="367.1578" gradientTransform="matrix(1 0 0 1 0 -196)">
						<stop offset="0" style="stop-color:#CA0123"></stop>
						<stop offset="0.15" style="stop-color:#C10123"></stop>
						<stop offset="0.4" style="stop-color:#A90224"></stop>
						<stop offset="0.71" style="stop-color:#810326"></stop>
						<stop offset="0.97" style="stop-color:#5B0428"></stop>
					</linearGradient>
					<path style="fill:url(#SVGID_00000115506031592083566370000000491082244851198114_);" d="M104.5,25C61,25,30,60,30,100
						s31.5,70,70,70c4,0,9-0.5,11.5-1c-4.5,1.5-12,2-16,2c-51,0-81.5-41-81.5-85c0-51.5,38.5-86,86-86c55,0,100,45,100,100
						c0,19.5-6,45-26.5,67.5c13-18,16.5-36,16.5-54C190,67,158.5,25,104.5,25z"></path>
				</g>
				<path class="st2" d="M245.1,124.8c-10,0-15.5-6-16-15.5h9.5c0,5,2.5,7.5,6,7.5c2.5,0,5-1,5-4.5s-2.5-5.5-7-8l-3.5-2
					c-5-2.5-9-6-9-13c0-9,6.5-13.5,15-13.5c9,0,14.5,5.5,14.5,14.5h-9.5c-0.5-5-2-7.5-5.5-7.5c-3,0-4.5,2-4.5,4.5
					c0,3.5,3,5.5,6.5,7.5l3,2c3.5,2,10,5.5,10,14.5C260.1,120.8,252.6,124.8,245.1,124.8z M279.1,124.3c8.5,0,15.5-6,15.5-18
					s-7-18-15.5-18s-15.5,6.5-15.5,18C263.6,118.4,270.6,124.8,279.1,124.3z M279.1,116.4c-3.5,0-6-3.5-6-10s2.5-10,6-10s6,3.5,6,10
					S283.1,116.4,279.1,116.4z M299.6,124.3h9.5V74.9h-9.5V124.3z M344,123.8v-34h-9.5v21c0,4-2,6-5,6s-5-2-5-6V89.3H315v23.5
					c0,7.5,4,12,10.5,12c4.5,0,7-2,8.5-4.5h0.5l1,3.5H344z M382.5,84.9c3,0,5.5-2.5,5.5-5.5s-2.5-5.5-5.5-5.5c-3.5,0-6,2.5-6,5.5
					S379.5,84.9,382.5,84.9z M377.5,123.8h9.5V89.3h-9.5V123.8z M407.9,124.3c8.5,0,15.5-6,15.5-18s-7-18-15.5-18s-15.5,6.5-15.5,18
					C392.4,118.4,399.4,124.3,407.9,124.3z M407.9,116.4c-3.5,0-6-3.5-6-10s2.5-10,6-10s6,3.5,6,10S411.4,116.4,407.9,116.4z
					 M474.3,123.8c6.5,0,12.5-3,12.5-10s-5-9.5-9.5-11l-2.5-1c-2.5-1-4.5-2-4.5-4s1-3,3-3c2.5,0,4,1.5,4,4h9c0-6-4.5-10.5-12.5-10.5
					c-7,0-12.5,3.5-12.5,10.5c0,6.5,5,8.5,9,10l2.5,1c3,1,5,2,5,4.5c0,2-1.5,3-3.5,3c-2.5,0-4-1-4.5-4.5h-9
					C461.4,120.3,465.8,124.3,474.3,123.8z M364.5,124.3c2,0,4.5,0,6-0.5v-7c-1,0.5-2,0.5-3,0.5c-3,0-4-2-4-4V96.8h8.5v-7.5h-8.5v-9
					H355v4c0,3.5-1.5,5-5,5h-1.5v7.5h6v18C354.5,120.3,357.5,124.8,364.5,124.3z M427.9,89.4v34.5h9.5v-21c0-4.5,2-6.5,5-6.5
					s5,2,5,6v21.5h9.5v-23.5c0-7.5-4-12-10.5-12c-4.5,0-7,2-8.5,4.5h-0.5l-1-3.5H427.9z M56.6,52.5v50.1c0,14.2,8,20.8,21.8,20.8
					c16.6,0,21.8-9,21.8-20.8V52.5H84v51.8c0,2.9-1.3,6.6-5.5,6.6c-4.6,0-5.6-2.9-5.6-6.2V52.5H56.6 M106.6,146.8V77.5h16.2v55.4
					h19.8v13.9L106.6,146.8"></path>
			</g>
		</g>
	</g>
</g>
</svg>
